<svg width="28" height="29" viewBox="0 0 28 29" fill="none" xmlns="http://www.w3.org/2000/svg">
<path d="M5.61239 9.71855L5.70502 10.3034L5.61239 9.71855ZM10.3976 4.93337L10.9824 5.026L10.3976 4.93337ZM21.9113 24.8084L21.5633 24.3294L21.9113 24.8084ZM23.1848 23.5349L22.7058 23.1869L23.1848 23.5349ZM4.65995 23.5349L5.13898 23.1869L4.65995 23.5349ZM5.93349 24.8084L6.28152 24.3294L5.93349 24.8084ZM5.93349 3.98094L5.58546 3.50192L5.93349 3.98094ZM4.65995 5.25448L4.18093 4.90645L4.65995 5.25448ZM21.9113 3.98094L21.5633 4.45996L21.9113 3.98094ZM23.1848 5.25448L22.7058 5.60251L23.1848 5.25448ZM10.4684 2.91484L10.4482 2.32308L10.4684 2.91484ZM3.59385 9.78943L3.00209 9.76915L3.59385 9.78943ZM15.0737 18.4078C14.7467 18.4078 14.4816 18.6729 14.4816 19C14.4816 19.327 14.7467 19.5921 15.0737 19.5921V18.4078ZM18.5277 19.5921C18.8547 19.5921 19.1198 19.327 19.1198 19C19.1198 18.6729 18.8547 18.4078 18.5277 18.4078V19.5921ZM9.31713 13.8026C8.99012 13.8026 8.72502 14.0677 8.72502 14.3947C8.72502 14.7217 8.99012 14.9868 9.31713 14.9868V13.8026ZM18.5277 14.9868C18.8547 14.9868 19.1198 14.7217 19.1198 14.3947C19.1198 14.0677 18.8547 13.8026 18.5277 13.8026V14.9868ZM15.0737 9.19732C14.7467 9.19732 14.4816 9.46241 14.4816 9.78943C14.4816 10.1164 14.7467 10.3815 15.0737 10.3815V9.19732ZM18.5277 10.3815C18.8547 10.3815 19.1198 10.1164 19.1198 9.78943C19.1198 9.46241 18.8547 9.19732 18.5277 9.19732V10.3815ZM5.70502 10.3034C8.42157 9.87311 10.5521 7.74255 10.9824 5.026L9.81275 4.84075C9.46275 7.05059 7.7296 8.78373 5.51977 9.13374L5.70502 10.3034ZM2.96844 13.2434V15.546H4.15265V13.2434H2.96844ZM24.8763 15.546V13.2434H23.6921V15.546H24.8763ZM13.9224 26.5C16.0678 26.5 17.7244 26.5008 19.0321 26.3591C20.3509 26.2162 21.385 25.9227 22.2593 25.2875L21.5633 24.3294C20.9244 24.7936 20.1226 25.0498 18.9045 25.1818C17.6754 25.3149 16.0941 25.3157 13.9224 25.3157V26.5ZM23.6921 15.546C23.6921 17.7178 23.6913 19.299 23.5581 20.5281C23.4262 21.7462 23.1699 22.548 22.7058 23.1869L23.6638 23.8829C24.2991 23.0086 24.5926 21.9745 24.7355 20.6557C24.8771 19.348 24.8763 17.6914 24.8763 15.546H23.6921ZM22.2593 25.2875C22.7983 24.8959 23.2723 24.4219 23.6638 23.8829L22.7058 23.1869C22.3873 23.6253 22.0017 24.0109 21.5633 24.3294L22.2593 25.2875ZM2.96844 15.546C2.96844 17.6914 2.96763 19.348 3.10931 20.6557C3.2522 21.9745 3.54567 23.0086 4.18093 23.8829L5.13898 23.1869C4.67483 22.548 4.4186 21.7462 4.28663 20.5281C4.15346 19.299 4.15265 17.7178 4.15265 15.546H2.96844ZM13.9224 25.3157C11.7506 25.3157 10.1694 25.3149 8.94025 25.1818C7.7222 25.0498 6.92037 24.7936 6.28152 24.3294L5.58546 25.2875C6.45982 25.9227 7.49388 26.2162 8.81269 26.3591C10.1204 26.5008 11.777 26.5 13.9224 26.5V25.3157ZM4.18093 23.8829C4.57252 24.4219 5.04649 24.8959 5.58546 25.2875L6.28152 24.3294C5.84309 24.0109 5.45752 23.6253 5.13898 23.1869L4.18093 23.8829ZM5.58546 3.50192C5.04649 3.8935 4.57252 4.36748 4.18093 4.90645L5.13898 5.60251C5.45752 5.16407 5.84309 4.77851 6.28152 4.45996L5.58546 3.50192ZM13.9224 3.47364C16.0941 3.47364 17.6754 3.47445 18.9045 3.60762C20.1226 3.73959 20.9244 3.99581 21.5633 4.45996L22.2593 3.50192C21.385 2.86666 20.3509 2.57318 19.0321 2.4303C17.7244 2.28861 16.0678 2.28943 13.9224 2.28943V3.47364ZM24.8763 13.2434C24.8763 11.098 24.8771 9.44141 24.7355 8.13368C24.5926 6.81487 24.2991 5.78081 23.6638 4.90645L22.7058 5.60251C23.1699 6.24135 23.4262 7.04318 23.5581 8.26123C23.6913 9.49037 23.6921 11.0716 23.6921 13.2434H24.8763ZM21.5633 4.45996C22.0017 4.77851 22.3873 5.16407 22.7058 5.60251L23.6638 4.90645C23.2723 4.36748 22.7983 3.8935 22.2593 3.50192L21.5633 4.45996ZM13.9224 2.28943C12.5799 2.28943 11.4326 2.28935 10.4482 2.32308L10.4887 3.50659C11.4485 3.47371 12.5733 3.47364 13.9224 3.47364V2.28943ZM10.4482 2.32308C8.29459 2.39686 6.7841 2.63106 5.58546 3.50192L6.28152 4.45996C7.16586 3.81745 8.34976 3.57988 10.4887 3.50659L10.4482 2.32308ZM9.87634 2.91483C9.87633 3.98396 9.87379 4.45537 9.81275 4.84075L10.9824 5.026C11.0616 4.52576 11.0605 3.94056 11.0605 2.91484L9.87634 2.91483ZM4.15265 13.2434C4.15265 11.8943 4.15273 10.7695 4.18561 9.8097L3.00209 9.76915C2.96837 10.7536 2.96844 11.9008 2.96844 13.2434H4.15265ZM4.18561 9.8097C4.25889 7.67074 4.49647 6.48684 5.13898 5.60251L4.18093 4.90645C3.31007 6.10508 3.07588 7.61558 3.00209 9.76915L4.18561 9.8097ZM3.59386 10.3815C4.61958 10.3815 5.20478 10.3826 5.70502 10.3034L5.51977 9.13374C5.13439 9.19477 4.66298 9.19731 3.59385 9.19732L3.59386 10.3815ZM15.0737 19.5921H18.5277V18.4078H15.0737V19.5921ZM9.31713 14.9868H18.5277V13.8026H9.31713V14.9868ZM15.0737 10.3815H18.5277V9.19732H15.0737V10.3815Z" fill="#1B9DB1"/>
</svg>
