<svg width="33" height="33" viewBox="0 0 33 33" fill="none" xmlns="http://www.w3.org/2000/svg">
<g id="Wallet">
<path id="Vector" d="M4.66372 30.2994L5.08391 29.6137L4.66372 30.2994ZM2.15624 27.7919L2.84193 27.3717L2.15624 27.7919ZM30.2985 27.7919L29.6128 27.3717L30.2985 27.7919ZM27.791 30.2994L27.3708 29.6137L27.791 30.2994ZM27.791 6.71423L27.3708 7.39992L27.791 6.71423ZM30.2985 9.22171L29.6128 9.6419L30.2985 9.22171ZM4.66372 6.71423L5.08391 7.39992L4.66372 6.71423ZM2.15624 9.22171L2.84193 9.6419L2.15624 9.22171ZM26.0658 1.86798L26.6462 1.31129V1.31129L26.0658 1.86798ZM3.83845 2.39104L4.32402 3.0321H4.32402L3.83845 2.39104ZM2.33495 3.9585L2.99473 4.4183L2.33495 3.9585ZM26.8606 5.79297H27.6648L27.6648 5.789L26.8606 5.79297ZM25.8939 18.3444C26.3381 18.3444 26.6981 17.9843 26.6981 17.5402C26.6981 17.096 26.3381 16.736 25.8939 16.736V18.3444ZM21.7511 16.736C21.307 16.736 20.9469 17.096 20.9469 17.5402C20.9469 17.9843 21.307 18.3444 21.7511 18.3444V16.736ZM13.9488 6.3992H18.5059V4.79081H13.9488V6.3992ZM18.5059 30.6144H13.9488V32.2228H18.5059V30.6144ZM13.9488 30.6144C11.447 30.6144 9.62713 30.6135 8.20262 30.4781C6.79007 30.3438 5.84952 30.0828 5.08391 29.6137L4.24353 30.985C5.30433 31.6351 6.5201 31.9338 8.05038 32.0793C9.56869 32.2236 11.4782 32.2228 13.9488 32.2228V30.6144ZM0.232823 18.5068C0.232823 20.9774 0.231974 22.8869 0.376336 24.4052C0.521836 25.9355 0.820494 27.1513 1.47055 28.2121L2.84193 27.3717C2.37276 26.6061 2.11181 25.6655 1.9775 24.253C1.84206 22.8285 1.84121 21.0086 1.84121 18.5068H0.232823ZM5.08391 29.6137C4.17015 29.0537 3.40188 28.2855 2.84193 27.3717L1.47055 28.2121C2.16313 29.3423 3.11335 30.2925 4.24353 30.985L5.08391 29.6137ZM18.5059 32.2228C20.9766 32.2228 22.886 32.2236 24.4043 32.0793C25.9346 31.9338 27.1504 31.6351 28.2112 30.985L27.3708 29.6137C26.6052 30.0828 25.6646 30.3438 24.2521 30.4781C22.8276 30.6135 21.0077 30.6144 18.5059 30.6144V32.2228ZM29.6128 27.3717C29.0528 28.2855 28.2846 29.0537 27.3708 29.6137L28.2112 30.985C29.3414 30.2925 30.2916 29.3423 30.9842 28.2121L29.6128 27.3717ZM27.3708 7.39992C28.2846 7.95987 29.0528 8.72814 29.6128 9.6419L30.9842 8.80152C30.2916 7.67134 29.3414 6.72112 28.2112 6.02854L27.3708 7.39992ZM13.9488 4.79081C11.4782 4.79081 9.56869 4.78996 8.05038 4.93432C6.5201 5.07982 5.30433 5.37848 4.24353 6.02854L5.08391 7.39992C5.84952 6.93075 6.79007 6.6698 8.20262 6.53549C9.62713 6.40005 11.447 6.3992 13.9488 6.3992V4.79081ZM1.84121 18.5068C1.84121 16.005 1.84206 14.1851 1.9775 12.7606C2.11181 11.3481 2.37276 10.4075 2.84193 9.6419L1.47055 8.80152C0.820494 9.86232 0.521836 11.0781 0.376336 12.6084C0.231974 14.1267 0.232823 16.0361 0.232823 18.5068H1.84121ZM4.24353 6.02854C3.11335 6.72112 2.16313 7.67134 1.47055 8.80152L2.84193 9.6419C3.40188 8.72814 4.17015 7.95987 5.08391 7.39992L4.24353 6.02854ZM13.2699 1.8421H21.4252V0.233708H13.2699V1.8421ZM21.4252 1.8421C22.7303 1.8421 23.6249 1.84395 24.2964 1.93807C24.9412 2.02845 25.2601 2.18976 25.4854 2.42467L26.6462 1.31129C26.0753 0.716124 25.3554 0.462392 24.5196 0.345253C23.7106 0.231855 22.683 0.233708 21.4252 0.233708V1.8421ZM13.2699 0.233708C10.7402 0.233708 8.77565 0.23251 7.22258 0.407932C5.6524 0.585288 4.40726 0.951352 3.35288 1.74999L4.32402 3.0321C5.05609 2.47759 5.97834 2.16709 7.4031 2.00616C8.84498 1.8433 10.7029 1.8421 13.2699 1.8421V0.233708ZM1.84121 13.7911C1.84121 11.1172 1.84223 9.17375 1.99914 7.66381C2.15469 6.16704 2.45616 5.19111 2.99473 4.4183L1.67517 3.4987C0.915807 4.58833 0.568305 5.87199 0.399372 7.49756C0.231806 9.10997 0.232823 11.1516 0.232823 13.7911H1.84121ZM3.35288 1.74999C2.70784 2.23857 2.14192 2.82894 1.67517 3.4987L2.99473 4.4183C3.36633 3.88508 3.81516 3.41753 4.32402 3.0321L3.35288 1.74999ZM27.6648 5.789C27.6597 4.7583 27.6372 3.8946 27.514 3.18787C27.3873 2.46068 27.143 1.82923 26.6462 1.31129L25.4854 2.42467C25.6884 2.63632 25.8364 2.9299 25.9295 3.46407C26.0262 4.0187 26.0512 4.75269 26.0564 5.79694L27.6648 5.789ZM0.232823 13.7911C0.232823 15.285 0.202224 16.626 0.233091 17.769L1.84089 17.7256C1.81074 16.6088 1.84121 15.3416 1.84121 13.7911H0.232823ZM30.6581 20.8788H21.7511V22.4872H30.6581V20.8788ZM16.8041 17.5402C16.8041 20.2723 19.019 22.4872 21.7511 22.4872V20.8788C19.9072 20.8788 18.4125 19.384 18.4125 17.5402H16.8041ZM18.4125 17.5402C18.4125 15.6963 19.9072 14.2015 21.7511 14.2015V12.5931C19.019 12.5931 16.8041 14.808 16.8041 17.5402H18.4125ZM25.8939 16.736H21.7511V18.3444H25.8939V16.736ZM18.5059 6.3992C20.6053 6.3992 22.2278 6.39955 23.5447 6.4808C24.8607 6.56201 25.8107 6.72155 26.5751 7.01186L27.1461 5.50825C26.1594 5.13351 25.0222 4.96053 23.6437 4.87547C22.2662 4.79046 20.5869 4.79081 18.5059 4.79081V6.3992ZM26.5751 7.01186C26.8625 7.12102 27.1248 7.24918 27.3708 7.39992L28.2112 6.02854C27.8753 5.82271 27.5223 5.65111 27.1461 5.50825L26.5751 7.01186ZM26.0564 5.79297V6.26005H27.6648V5.79297H26.0564ZM21.7511 14.2015H31.3333V12.5931H21.7511V14.2015ZM32.2219 18.5068C32.2219 16.415 32.2222 14.729 32.1359 13.3472L30.5306 13.4475C30.6131 14.7679 30.6135 16.3963 30.6135 18.5068H32.2219ZM32.1359 13.3472C32.0178 11.4586 31.734 10.0251 30.9842 8.80152L29.6128 9.6419C30.1555 10.5276 30.4179 11.6434 30.5306 13.4475L32.1359 13.3472ZM30.6135 18.5068C30.6135 19.7023 30.6135 20.7453 30.5981 21.6696L32.2063 21.6963C32.2219 20.756 32.2219 19.6984 32.2219 18.5068H30.6135ZM30.5981 21.6696C30.5489 24.6379 30.3344 26.1941 29.6128 27.3717L30.9842 28.2121C31.9637 26.6137 32.1576 24.6317 32.2063 21.6963L30.5981 21.6696ZM30.6581 22.4872H31.4022V20.8788H30.6581V22.4872Z" fill="#656565"/>
</g>
</svg>
