<svg width="300" height="300" viewBox="0 0 300 300" fill="none" xmlns="http://www.w3.org/2000/svg">
<path d="M269.94 239.094H250.068V239.244H269.94V239.094Z" fill="#CCCCCC"/>
<path d="M198.732 240.726H193.518V240.876H198.732V240.726Z" fill="#CCCCCC"/>
<path d="M249.468 233.526H237.954V233.676H249.468V233.526Z" fill="#CCCCCC"/>
<path d="M57.3901 234.534H31.4761V234.684H57.3901V234.534Z" fill="#CCCCCC"/>
<path d="M66.5341 234.534H62.7361V234.684H66.5341V234.534Z" fill="#CCCCCC"/>
<path d="M135.09 237.066H78.8821V237.216H135.09V237.066Z" fill="#CCCCCC"/>
<path d="M142.2 202.68H26.352C25.4434 202.68 24.572 202.319 23.9295 201.677C23.287 201.034 22.926 200.163 22.926 199.254V36.396C22.9339 35.4926 23.2984 34.6288 23.94 33.9928C24.5817 33.3568 25.4486 33 26.352 33H142.2C143.109 33 143.98 33.361 144.623 34.0035C145.265 34.646 145.626 35.5174 145.626 36.426V199.254C145.626 200.163 145.265 201.034 144.623 201.677C143.98 202.319 143.109 202.68 142.2 202.68ZM26.352 33.12C25.4837 33.1216 24.6513 33.4672 24.0373 34.0813C23.4233 34.6953 23.0776 35.5276 23.076 36.396V199.254C23.0776 200.122 23.4233 200.955 24.0373 201.569C24.6513 202.183 25.4837 202.528 26.352 202.53H142.2C143.068 202.528 143.901 202.183 144.515 201.569C145.129 200.955 145.474 200.122 145.476 199.254V36.396C145.474 35.5276 145.129 34.6953 144.515 34.0813C143.901 33.4672 143.068 33.1216 142.2 33.12H26.352Z" fill="#CCCCCC"/>
<path d="M271.986 202.68H156.126C155.218 202.678 154.347 202.317 153.705 201.675C153.063 201.033 152.702 200.162 152.7 199.254V36.396C152.709 35.4931 153.074 34.6302 153.716 33.9946C154.357 33.3589 155.223 33.0015 156.126 33H271.986C272.887 33.0031 273.751 33.3613 274.39 33.997C275.029 34.6327 275.392 35.4947 275.4 36.396V199.254C275.4 200.161 275.041 201.03 274.401 201.672C273.761 202.314 272.892 202.677 271.986 202.68ZM156.126 33.12C155.258 33.1216 154.425 33.4672 153.811 34.0813C153.197 34.6953 152.852 35.5276 152.85 36.396V199.254C152.852 200.122 153.197 200.955 153.811 201.569C154.425 202.183 155.258 202.528 156.126 202.53H271.986C272.854 202.528 273.687 202.183 274.301 201.569C274.915 200.955 275.26 200.122 275.262 199.254V36.396C275.26 35.5276 274.915 34.6953 274.301 34.0813C273.687 33.4672 272.854 33.1216 271.986 33.12H156.126Z" fill="#CCCCCC"/>
<path d="M300 229.44H0V229.59H300V229.44Z" fill="#CCCCCC"/>
<path d="M257.268 84.51V88.11C259.531 88.3049 261.676 89.2052 263.4 90.684L265.962 88.122C263.549 85.9803 260.488 84.7087 257.268 84.51Z" fill="#F0F0F0"/>
<path d="M255.516 109.746C252.952 109.538 250.545 108.425 248.726 106.606C246.907 104.787 245.794 102.38 245.586 99.8159H241.986C242.192 103.342 243.682 106.671 246.175 109.174C248.667 111.677 251.991 113.18 255.516 113.4V109.746Z" fill="#E6E6E6"/>
<path d="M245.586 98.0699C245.795 95.5055 246.908 93.0988 248.727 91.2789C250.546 89.4591 252.952 88.3445 255.516 88.1339V84.5339C251.991 84.7501 248.667 86.2483 246.17 88.7461C243.673 91.2439 242.176 94.5688 241.962 98.0939L245.586 98.0699Z" fill="#CCCCCC"/>
<path d="M267.216 89.3579L264.654 91.9199C265.948 93.4395 266.797 95.2869 267.107 97.2583C267.418 99.2297 267.178 101.249 266.414 103.092C265.65 104.936 264.392 106.533 262.778 107.707C261.164 108.881 259.257 109.587 257.268 109.746V113.346C259.971 113.181 262.573 112.26 264.778 110.687C266.983 109.115 268.702 106.955 269.739 104.453C270.776 101.952 271.089 99.2091 270.643 96.538C270.197 93.867 269.01 91.3749 267.216 89.3459V89.3579Z" fill="#D3D3D3"/>
<path d="M147.522 92.25H150.186C150.624 92.25 151.043 92.4238 151.353 92.7333C151.662 93.0427 151.836 93.4624 151.836 93.9V171.354H145.866V93.9C145.866 93.6828 145.909 93.4678 145.992 93.2672C146.075 93.0666 146.198 92.8845 146.351 92.7312C146.505 92.5779 146.688 92.4564 146.889 92.3739C147.09 92.2913 147.305 92.2492 147.522 92.25Z" fill="#E6E6E6"/>
<path d="M149.358 92.25H147.714C147.225 92.25 146.756 92.4439 146.409 92.7891C146.063 93.1344 145.868 93.6029 145.866 94.092V171.354H147.51V94.092C147.512 93.6029 147.707 93.1344 148.053 92.7891C148.4 92.4439 148.869 92.25 149.358 92.25Z" fill="#F0F0F0"/>
<path d="M153.57 166.248H144.174V229.59H153.57V166.248Z" fill="#CCCCCC"/>
<path d="M140.832 227.028H156.912C157.52 227.028 158.103 227.27 158.533 227.699C158.963 228.129 159.204 228.712 159.204 229.32V229.584H138.54V229.32C138.54 228.712 138.782 228.129 139.211 227.699C139.641 227.27 140.224 227.028 140.832 227.028Z" fill="#E6E6E6"/>
<path d="M237.852 198.3H253.002C254.308 198.298 255.56 197.779 256.483 196.855C257.407 195.932 257.926 194.68 257.928 193.374V171.222C257.928 170.983 257.833 170.754 257.664 170.586C257.496 170.417 257.267 170.322 257.028 170.322C256.789 170.322 256.56 170.417 256.392 170.586C256.223 170.754 256.128 170.983 256.128 171.222V193.374C256.128 194.203 255.799 194.998 255.212 195.584C254.626 196.171 253.831 196.5 253.002 196.5H237.852V198.3Z" fill="#D3D3D3"/>
<path d="M233.52 219.528V198.9L232.32 198.522C231.656 198.313 231.076 197.898 230.664 197.337C230.252 196.776 230.029 196.098 230.028 195.402H241.458C241.458 196.098 241.236 196.777 240.823 197.338C240.411 197.899 239.831 198.314 239.166 198.522L237.966 198.9V219.528L247.452 223.8V225.6L235.734 221.502L224.016 225.6V223.8L233.52 219.528Z" fill="#D3D3D3"/>
<path d="M220.8 196.5H250.686C251.112 196.5 251.534 196.416 251.928 196.253C252.322 196.09 252.68 195.851 252.981 195.549C253.283 195.248 253.522 194.89 253.685 194.496C253.848 194.102 253.932 193.68 253.932 193.254C253.93 192.394 253.588 191.57 252.979 190.963C252.371 190.355 251.546 190.014 250.686 190.014H220.8C219.941 190.014 219.117 190.355 218.509 190.963C217.901 191.571 217.56 192.395 217.56 193.254C217.559 193.68 217.642 194.102 217.805 194.496C217.967 194.889 218.206 195.247 218.507 195.549C218.808 195.85 219.165 196.09 219.559 196.253C219.952 196.416 220.374 196.5 220.8 196.5Z" fill="#F0F0F0"/>
<path d="M255.948 179.016L257.562 155.952C257.621 155.096 257.339 154.252 256.777 153.604C256.214 152.956 255.418 152.557 254.562 152.496C253.705 152.435 252.859 152.717 252.21 153.279C251.561 153.842 251.162 154.639 251.1 155.496L249.486 178.56C249.427 179.416 249.709 180.262 250.271 180.91C250.833 181.559 251.63 181.959 252.486 182.022C253.344 182.081 254.19 181.798 254.839 181.235C255.488 180.671 255.887 179.873 255.948 179.016Z" fill="#CCCCCC"/>
<path d="M245.4 226.866C245.4 227.272 245.52 227.669 245.746 228.006C245.971 228.343 246.292 228.606 246.667 228.762C247.042 228.917 247.454 228.958 247.852 228.879C248.25 228.799 248.616 228.604 248.903 228.317C249.19 228.03 249.385 227.664 249.464 227.266C249.544 226.868 249.503 226.456 249.348 226.081C249.192 225.706 248.929 225.385 248.592 225.16C248.254 224.934 247.858 224.814 247.452 224.814C247.182 224.814 246.916 224.867 246.667 224.97C246.418 225.073 246.191 225.224 246.001 225.415C245.81 225.606 245.659 225.832 245.556 226.081C245.453 226.33 245.4 226.596 245.4 226.866Z" fill="#D3D3D3"/>
<path d="M221.964 226.866C221.964 227.272 222.084 227.669 222.31 228.006C222.535 228.343 222.856 228.606 223.231 228.762C223.606 228.917 224.018 228.958 224.416 228.879C224.814 228.799 225.18 228.604 225.467 228.317C225.754 228.03 225.949 227.664 226.028 227.266C226.108 226.868 226.067 226.456 225.912 226.081C225.756 225.706 225.493 225.385 225.156 225.16C224.818 224.934 224.422 224.814 224.016 224.814C223.472 224.814 222.95 225.03 222.565 225.415C222.18 225.8 221.964 226.322 221.964 226.866Z" fill="#D3D3D3"/>
<path d="M60.2219 198.3H45.0719C43.7649 198.3 42.5113 197.781 41.5866 196.858C40.6618 195.934 40.1415 194.681 40.1399 193.374V171.222C40.1399 170.983 40.2347 170.754 40.4035 170.586C40.5723 170.417 40.8012 170.322 41.0399 170.322C41.2786 170.322 41.5075 170.417 41.6763 170.586C41.8451 170.754 41.9399 170.983 41.9399 171.222V193.374C41.9415 194.204 42.2722 194.999 42.8594 195.585C43.4465 196.171 44.2423 196.5 45.0719 196.5H60.2219V198.3Z" fill="#D3D3D3"/>
<path d="M64.5541 219.528V198.9L65.7541 198.522C66.4174 198.313 66.9967 197.897 67.4078 197.336C67.8189 196.775 68.0404 196.098 68.0401 195.402H56.6401C56.6411 196.098 56.8638 196.776 57.2759 197.337C57.688 197.898 58.2681 198.313 58.9321 198.522L60.1321 198.9V219.528L50.6221 223.8V225.6L62.3401 221.502L74.0581 225.6V223.8L64.5541 219.528Z" fill="#D3D3D3"/>
<path d="M77.2799 196.5H47.3999C46.5401 196.498 45.716 196.156 45.1085 195.547C44.5011 194.938 44.1599 194.114 44.1599 193.254C44.1599 192.395 44.5013 191.571 45.1089 190.963C45.7165 190.355 46.5406 190.014 47.3999 190.014H77.2799C78.1398 190.014 78.9645 190.355 79.5731 190.963C80.1816 191.57 80.5243 192.394 80.5259 193.254C80.5259 194.115 80.1839 194.94 79.5752 195.549C78.9664 196.158 78.1408 196.5 77.2799 196.5Z" fill="#F0F0F0"/>
<path d="M42.1201 179.016L40.5061 155.952C40.4467 155.096 40.7291 154.252 41.2915 153.604C41.8539 152.956 42.6503 152.557 43.5061 152.496C44.3629 152.435 45.209 152.717 45.8582 153.279C46.5074 153.842 46.9066 154.639 46.9681 155.496L48.6001 178.566C48.6595 179.422 48.3772 180.268 47.815 180.916C47.2527 181.565 46.4563 181.965 45.6001 182.028C45.1736 182.06 44.745 182.007 44.3389 181.873C43.9329 181.739 43.5574 181.525 43.234 181.245C42.9106 180.965 42.6457 180.624 42.4545 180.242C42.2634 179.859 42.1497 179.443 42.1201 179.016Z" fill="#CCCCCC"/>
<path d="M52.668 226.866C52.668 227.272 52.5475 227.669 52.3217 228.007C52.096 228.344 51.7751 228.607 51.3998 228.762C51.0245 228.917 50.6116 228.958 50.2134 228.878C49.8152 228.798 49.4496 228.602 49.1629 228.315C48.8761 228.027 48.6812 227.661 48.6027 227.263C48.5242 226.864 48.5657 226.451 48.7219 226.077C48.8781 225.702 49.1421 225.382 49.4803 225.157C49.8185 224.932 50.2159 224.813 50.622 224.814C50.8912 224.814 51.1577 224.867 51.4063 224.97C51.6549 225.073 51.8808 225.225 52.0708 225.415C52.2609 225.606 52.4115 225.832 52.514 226.081C52.6164 226.33 52.6688 226.597 52.668 226.866Z" fill="#D3D3D3"/>
<path d="M76.104 226.866C76.104 227.272 75.9835 227.669 75.7578 228.007C75.532 228.344 75.2112 228.607 74.8359 228.762C74.4606 228.917 74.0477 228.958 73.6495 228.878C73.2513 228.798 72.8856 228.602 72.5989 228.315C72.3122 228.027 72.1172 227.661 72.0387 227.263C71.9602 226.864 72.0017 226.451 72.1579 226.077C72.3142 225.702 72.5781 225.382 72.9163 225.157C73.2546 224.932 73.6519 224.813 74.058 224.814C74.3272 224.814 74.5937 224.867 74.8424 224.97C75.091 225.073 75.3168 225.225 75.5069 225.415C75.6969 225.606 75.8475 225.832 75.95 226.081C76.0525 226.33 76.1048 226.597 76.104 226.866Z" fill="#D3D3D3"/>
<path d="M124.608 229.59H112.908L111.708 207.402H125.808L124.608 229.59Z" fill="#CCCCCC"/>
<path d="M115.608 229.59H110.808V228.6L115.608 228V229.59Z" fill="#D3D3D3"/>
<path d="M113.49 205.602H124.026C124.503 205.602 124.961 205.792 125.299 206.129C125.636 206.467 125.826 206.925 125.826 207.402H111.702C111.702 206.925 111.892 206.467 112.229 206.129C112.567 205.792 113.025 205.602 113.502 205.602H113.49Z" fill="#D3D3D3"/>
<path d="M100.608 172.044H81.876V169.8L100.608 168.6V172.044Z" fill="#D3D3D3"/>
<path d="M128.304 174.33H72.906V181.998H128.304V174.33Z" fill="#F0F0F0"/>
<path d="M139.788 172.044H61.6201V176.616H139.788V172.044Z" fill="#FAFAFA"/>
<path d="M132.528 229.59H136.056L129.948 176.616H125.808L132.528 229.59Z" fill="#E6E6E6"/>
<path d="M75.5999 176.616H71.4599L65.3459 229.59H68.8799L75.5999 176.616Z" fill="#E6E6E6"/>
<path d="M119.574 170.904C117.974 162.96 116.374 155.012 114.774 147.06C114.546 145.926 112.806 146.406 113.034 147.54L117.6 170.244H107.7C107.461 170.244 107.232 170.339 107.064 170.508C106.895 170.677 106.8 170.905 106.8 171.144C106.8 171.383 106.895 171.612 107.064 171.781C107.232 171.949 107.461 172.044 107.7 172.044H118.698C118.837 172.043 118.973 172.01 119.097 171.949C119.221 171.887 119.33 171.798 119.414 171.688C119.499 171.578 119.557 171.45 119.585 171.314C119.612 171.179 119.609 171.038 119.574 170.904Z" fill="#D3D3D3"/>
<path d="M108.366 164.508L111.45 120.42C112.589 121.233 113.5 122.324 114.096 123.59C114.691 124.856 114.952 126.254 114.852 127.65L112.746 157.8C112.652 159.2 112.2 160.552 111.433 161.727C110.666 162.901 109.61 163.859 108.366 164.508Z" fill="#FAFAFA"/>
<path d="M132.396 159.228H127.38C126.419 159.228 125.64 160.007 125.64 160.968V170.304C125.64 171.265 126.419 172.044 127.38 172.044H132.396C133.357 172.044 134.136 171.265 134.136 170.304V160.968C134.136 160.007 133.357 159.228 132.396 159.228Z" fill="#F5F5F5"/>
<path d="M129 154.458C127.674 154.458 126.6 154.788 126.6 155.19C126.6 155.592 127.68 155.046 129 155.046C129.17 155.037 129.34 155.037 129.51 155.046V157.95H130.266V155.16C130.95 155.286 131.406 155.424 131.406 155.16C131.4 154.8 130.326 154.458 129 154.458Z" fill="#D3D3D3"/>
<path d="M131.244 157.038H128.538V159.744H131.244V157.038Z" fill="#F0F0F0"/>
<path d="M169.77 182.004H225.168V174.336H169.77V182.004Z" fill="#F0F0F0"/>
<path d="M158.286 176.622H236.454V172.05H158.286V176.622Z" fill="#FAFAFA"/>
<path d="M165.546 229.59H162.012L168.12 176.616H172.26L165.546 229.59Z" fill="#E6E6E6"/>
<path d="M222.474 176.616H226.614L232.722 229.59H229.188L222.474 176.616Z" fill="#E6E6E6"/>
<path d="M209.178 172.044H227.904V169.8L209.178 168.6V172.044Z" fill="#263238"/>
<path opacity="0.6" d="M209.178 172.044H227.904V169.8L209.178 168.6V172.044Z" fill="white"/>
<path d="M171.504 131.802V172.044H174.108L174.708 168.474C174.817 167.842 175.146 167.269 175.637 166.856C176.128 166.443 176.749 166.217 177.39 166.218H201.6C202.241 166.217 202.862 166.443 203.353 166.856C203.844 167.269 204.173 167.842 204.282 168.474L204.882 172.044H207.48V131.802H171.504Z" fill="#FAFAFA"/>
<path d="M183.15 170.904C184.75 162.96 186.35 155.012 187.95 147.06C188.178 145.926 189.912 146.406 189.684 147.54L185.112 170.244H195C195.239 170.244 195.468 170.339 195.637 170.508C195.805 170.677 195.9 170.905 195.9 171.144C195.9 171.383 195.805 171.612 195.637 171.781C195.468 171.949 195.239 172.044 195 172.044H184.014C183.877 172.041 183.741 172.007 183.619 171.945C183.496 171.882 183.389 171.793 183.306 171.683C183.223 171.574 183.166 171.446 183.139 171.312C183.112 171.177 183.116 171.037 183.15 170.904Z" fill="#D3D3D3"/>
<path d="M194.352 164.508L191.268 120.42C190.13 121.234 189.22 122.326 188.625 123.592C188.029 124.857 187.768 126.255 187.866 127.65L189.972 157.8C190.067 159.199 190.52 160.551 191.287 161.726C192.054 162.9 193.109 163.858 194.352 164.508Z" fill="#D3D3D3"/>
<path d="M147.294 44.9099H143.676V63.7979L147.294 63.7859V44.9099Z" fill="#CCCCCC"/>
<path d="M136.626 48.8281V63.7741C136.759 63.7982 136.893 63.8103 137.028 63.8101H140.244V48.8101L136.626 48.8281Z" fill="#E6E6E6"/>
<path d="M158.316 42.948V63.768H161.544C161.675 63.7655 161.805 63.7535 161.934 63.732V42.948H158.316Z" fill="#F0F0F0"/>
<path d="M154.704 52.6799H151.086V63.7799L154.704 63.7739V52.6799Z" fill="#D3D3D3"/>
<path d="M43.092 84.3779V98.7119L48.408 112.026C51.3642 110.679 53.7818 108.377 55.2723 105.491C56.7628 102.605 57.2396 99.3008 56.6263 96.1107C56.0129 92.9206 54.3449 90.0293 51.8902 87.9014C49.4356 85.7735 46.3369 84.5325 43.092 84.3779Z" fill="#D3D3D3"/>
<path d="M41.838 98.5319V84.3779C38.2336 84.549 34.8332 86.1008 32.3421 88.7115C29.8509 91.3221 28.4601 94.7914 28.458 98.3999C28.458 98.5759 28.458 98.7499 28.458 98.9219C28.458 99.1019 28.458 99.2759 28.458 99.4559C28.4561 101.695 28.9899 103.902 30.0147 105.892C31.0396 107.883 32.5258 109.599 34.3492 110.898C36.1726 112.197 38.2804 113.041 40.4965 113.359C42.7126 113.678 44.9726 113.461 47.088 112.728L41.838 98.5319Z" fill="#F0F0F0"/>
<path d="M147.108 254.226C211.357 254.226 263.442 251.185 263.442 247.434C263.442 243.683 211.357 240.642 147.108 240.642C82.8584 240.642 30.7739 243.683 30.7739 247.434C30.7739 251.185 82.8584 254.226 147.108 254.226Z" fill="#F5F5F5"/>
<path d="M134.808 244.272L146.04 233.04L157.272 244.272C157.562 244.56 157.955 244.722 158.364 244.722C158.669 244.723 158.968 244.632 159.222 244.463C159.477 244.294 159.675 244.053 159.792 243.77C159.909 243.488 159.939 243.178 159.879 242.878C159.82 242.579 159.672 242.304 159.456 242.088L146.04 228.672L132.6 242.088C132.384 242.304 132.236 242.579 132.177 242.878C132.117 243.178 132.147 243.488 132.264 243.77C132.381 244.053 132.579 244.294 132.834 244.463C133.088 244.632 133.387 244.723 133.692 244.722C133.899 244.725 134.104 244.687 134.296 244.61C134.487 244.532 134.661 244.418 134.808 244.272Z" fill="#1B9DB1"/>
<path opacity="0.2" d="M146.418 229.056H145.662L142.218 232.494V236.7H142.38L146.04 233.04L149.7 236.7H149.862V232.494L146.418 229.056Z" fill="black"/>
<path d="M143.742 194.022H148.338V242.922C148.338 243.399 148.149 243.857 147.811 244.195C147.473 244.532 147.016 244.722 146.538 244.722H145.542C145.065 244.722 144.607 244.532 144.269 244.195C143.932 243.857 143.742 243.399 143.742 242.922V194.022Z" fill="#1B9DB1"/>
<path opacity="0.2" d="M148.338 194.022H143.742V212.04H148.338V194.022Z" fill="black"/>
<path d="M227.844 205.578H64.236C62.6208 205.575 61.0727 204.931 59.9311 203.789C58.7895 202.646 58.1476 201.097 58.146 199.482V72.5579H233.946V199.482C233.944 201.099 233.301 202.65 232.157 203.793C231.012 204.936 229.461 205.578 227.844 205.578ZM60.204 74.6159V199.482C60.204 200.552 60.6286 201.578 61.3846 202.335C62.1405 203.092 63.1661 203.518 64.236 203.52H227.844C228.914 203.518 229.939 203.092 230.695 202.335C231.451 201.578 231.876 200.552 231.876 199.482V74.6159H60.204Z" fill="#1B9DB1"/>
<g opacity="0.8">
<path d="M227.844 205.578H64.236C62.6208 205.575 61.0727 204.931 59.9311 203.789C58.7895 202.646 58.1476 201.097 58.146 199.482V72.5579H233.946V199.482C233.944 201.099 233.301 202.65 232.157 203.793C231.012 204.936 229.461 205.578 227.844 205.578ZM60.204 74.6159V199.482C60.204 200.552 60.6286 201.578 61.3846 202.335C62.1405 203.092 63.1661 203.518 64.236 203.52H227.844C228.914 203.518 229.939 203.092 230.695 202.335C231.451 201.578 231.876 200.552 231.876 199.482V74.6159H60.204Z" fill="white"/>
</g>
<path d="M60.2041 74.616V199.482C60.2041 200.552 60.6287 201.578 61.3847 202.335C62.1407 203.092 63.1662 203.518 64.2361 203.52H227.844C228.914 203.518 229.94 203.092 230.696 202.335C231.452 201.578 231.876 200.552 231.876 199.482V74.616H60.2041Z" fill="white"/>
<path d="M237.906 71.2739H54.1741V75.9059H237.906V71.2739Z" fill="#1B9DB1"/>
<path opacity="0.5" d="M237.906 71.2739H54.1741V73.5899H237.906V71.2739Z" fill="white"/>
<path d="M76.5242 181.38C76.5242 181.38 178.914 179.472 210.45 90.24L209.364 181.584L76.5242 181.38Z" fill="#1B9DB1"/>
<g opacity="0.7">
<path d="M76.5242 181.38C76.5242 181.38 178.914 179.472 210.45 90.24L209.364 181.584L76.5242 181.38Z" fill="white"/>
</g>
<path d="M77.3161 181.896C77.157 181.9 77.0028 181.841 76.8875 181.731C76.7721 181.621 76.7051 181.47 76.7011 181.311C76.6971 181.152 76.7565 180.998 76.8662 180.882C76.976 180.767 77.127 180.7 77.2861 180.696C82.2541 180.462 108.432 178.668 136.62 166.38C172.62 150.672 197.172 124.98 209.532 89.9999C209.594 89.8631 209.705 89.7545 209.843 89.6954C209.981 89.6363 210.136 89.6311 210.278 89.6808C210.419 89.7306 210.537 89.8316 210.608 89.964C210.679 90.0964 210.697 90.2505 210.66 90.3959C203.85 109.686 193.158 126.396 178.86 140.094C167.232 151.248 153.174 160.458 137.076 167.478C108.696 179.856 82.3201 181.662 77.3221 181.878L77.3161 181.896Z" fill="#1B9DB1"/>
<path d="M82.6562 187.512C82.497 187.512 82.3444 187.449 82.2319 187.336C82.1194 187.224 82.0562 187.071 82.0562 186.912V181.926C82.0562 181.767 82.1194 181.614 82.2319 181.502C82.3444 181.389 82.497 181.326 82.6562 181.326C82.8153 181.326 82.9679 181.389 83.0804 181.502C83.1929 181.614 83.2562 181.767 83.2562 181.926V186.912C83.2562 187.071 83.1929 187.224 83.0804 187.336C82.9679 187.449 82.8153 187.512 82.6562 187.512Z" fill="#1B9DB1"/>
<path d="M103.482 187.536C103.323 187.536 103.17 187.473 103.058 187.36C102.945 187.248 102.882 187.095 102.882 186.936V181.95C102.882 181.791 102.945 181.638 103.058 181.526C103.17 181.413 103.323 181.35 103.482 181.35C103.641 181.35 103.794 181.413 103.906 181.526C104.019 181.638 104.082 181.791 104.082 181.95V186.936C104.082 187.095 104.019 187.248 103.906 187.36C103.794 187.473 103.641 187.536 103.482 187.536Z" fill="#1B9DB1"/>
<path d="M124.308 187.554C124.149 187.554 123.996 187.491 123.884 187.378C123.771 187.266 123.708 187.113 123.708 186.954V181.968C123.708 181.809 123.771 181.656 123.884 181.544C123.996 181.431 124.149 181.368 124.308 181.368C124.467 181.368 124.62 181.431 124.732 181.544C124.845 181.656 124.908 181.809 124.908 181.968V186.954C124.908 187.113 124.845 187.266 124.732 187.378C124.62 187.491 124.467 187.554 124.308 187.554Z" fill="#1B9DB1"/>
<path d="M145.134 187.572C144.975 187.572 144.822 187.509 144.71 187.396C144.597 187.284 144.534 187.131 144.534 186.972V181.986C144.534 181.827 144.597 181.674 144.71 181.562C144.822 181.449 144.975 181.386 145.134 181.386C145.293 181.386 145.446 181.449 145.558 181.562C145.671 181.674 145.734 181.827 145.734 181.986V186.972C145.734 187.131 145.671 187.284 145.558 187.396C145.446 187.509 145.293 187.572 145.134 187.572Z" fill="#1B9DB1"/>
<path d="M165.96 187.59C165.801 187.59 165.648 187.527 165.536 187.414C165.423 187.302 165.36 187.149 165.36 186.99V182.01C165.36 181.851 165.423 181.698 165.536 181.586C165.648 181.473 165.801 181.41 165.96 181.41C166.119 181.41 166.272 181.473 166.384 181.586C166.497 181.698 166.56 181.851 166.56 182.01V186.99C166.56 187.149 166.497 187.302 166.384 187.414C166.272 187.527 166.119 187.59 165.96 187.59Z" fill="#1B9DB1"/>
<path d="M186.78 187.614C186.621 187.614 186.468 187.551 186.356 187.438C186.243 187.326 186.18 187.173 186.18 187.014V182.028C186.18 181.869 186.243 181.716 186.356 181.604C186.468 181.491 186.621 181.428 186.78 181.428C186.939 181.428 187.092 181.491 187.204 181.604C187.317 181.716 187.38 181.869 187.38 182.028V187.014C187.38 187.173 187.317 187.326 187.204 187.438C187.092 187.551 186.939 187.614 186.78 187.614Z" fill="#1B9DB1"/>
<path d="M207.6 187.632C207.441 187.632 207.288 187.569 207.176 187.456C207.063 187.344 207 187.191 207 187.032V182.046C207 181.887 207.063 181.734 207.176 181.622C207.288 181.509 207.441 181.446 207.6 181.446C207.759 181.446 207.912 181.509 208.024 181.622C208.137 181.734 208.2 181.887 208.2 182.046V187.032C208.2 187.191 208.137 187.344 208.024 187.456C207.912 187.569 207.759 187.632 207.6 187.632Z" fill="#1B9DB1"/>
<path d="M76.8 95.7898H74.112C73.9528 95.7898 73.8002 95.7266 73.6877 95.6141C73.5752 95.5016 73.512 95.349 73.512 95.1898C73.512 95.0307 73.5752 94.8781 73.6877 94.7656C73.8002 94.6531 73.9528 94.5898 74.112 94.5898H76.8C76.9591 94.5898 77.1117 94.6531 77.2242 94.7656C77.3368 94.8781 77.4 95.0307 77.4 95.1898C77.4 95.349 77.3368 95.5016 77.2242 95.6141C77.1117 95.7266 76.9591 95.7898 76.8 95.7898Z" fill="#1B9DB1"/>
<path d="M76.8 108.852H74.112C73.9528 108.852 73.8002 108.789 73.6877 108.676C73.5752 108.564 73.512 108.411 73.512 108.252C73.512 108.093 73.5752 107.94 73.6877 107.828C73.8002 107.715 73.9528 107.652 74.112 107.652H76.8C76.9591 107.652 77.1117 107.715 77.2242 107.828C77.3368 107.94 77.4 108.093 77.4 108.252C77.4 108.411 77.3368 108.564 77.2242 108.676C77.1117 108.789 76.9591 108.852 76.8 108.852Z" fill="#1B9DB1"/>
<path d="M76.8 121.92H74.112C73.9528 121.92 73.8002 121.857 73.6877 121.744C73.5752 121.632 73.512 121.479 73.512 121.32C73.512 121.161 73.5752 121.008 73.6877 120.896C73.8002 120.783 73.9528 120.72 74.112 120.72H76.8C76.9591 120.72 77.1117 120.783 77.2242 120.896C77.3368 121.008 77.4 121.161 77.4 121.32C77.4 121.479 77.3368 121.632 77.2242 121.744C77.1117 121.857 76.9591 121.92 76.8 121.92Z" fill="#1B9DB1"/>
<path d="M76.8 135H74.112C73.9528 135 73.8002 134.937 73.6877 134.824C73.5752 134.712 73.512 134.559 73.512 134.4C73.512 134.241 73.5752 134.088 73.6877 133.976C73.8002 133.863 73.9528 133.8 74.112 133.8H76.8C76.9591 133.8 77.1117 133.863 77.2242 133.976C77.3368 134.088 77.4 134.241 77.4 134.4C77.4 134.559 77.3368 134.712 77.2242 134.824C77.1117 134.937 76.9591 135 76.8 135Z" fill="#1B9DB1"/>
<path d="M76.8 148.05H74.112C73.9528 148.05 73.8002 147.987 73.6877 147.874C73.5752 147.762 73.512 147.609 73.512 147.45C73.512 147.291 73.5752 147.138 73.6877 147.026C73.8002 146.913 73.9528 146.85 74.112 146.85H76.8C76.9591 146.85 77.1117 146.913 77.2242 147.026C77.3368 147.138 77.4 147.291 77.4 147.45C77.4 147.609 77.3368 147.762 77.2242 147.874C77.1117 147.987 76.9591 148.05 76.8 148.05Z" fill="#1B9DB1"/>
<path d="M76.8 161.118H74.112C73.9528 161.118 73.8002 161.055 73.6877 160.942C73.5752 160.83 73.512 160.677 73.512 160.518C73.512 160.359 73.5752 160.206 73.6877 160.094C73.8002 159.981 73.9528 159.918 74.112 159.918H76.8C76.9591 159.918 77.1117 159.981 77.2242 160.094C77.3368 160.206 77.4 160.359 77.4 160.518C77.4 160.677 77.3368 160.83 77.2242 160.942C77.1117 161.055 76.9591 161.118 76.8 161.118Z" fill="#1B9DB1"/>
<path d="M76.8 174.18H74.112C73.9528 174.18 73.8002 174.117 73.6877 174.004C73.5752 173.892 73.512 173.739 73.512 173.58C73.512 173.421 73.5752 173.268 73.6877 173.156C73.8002 173.043 73.9528 172.98 74.112 172.98H76.8C76.9591 172.98 77.1117 173.043 77.2242 173.156C77.3368 173.268 77.4 173.421 77.4 173.58C77.4 173.739 77.3368 173.892 77.2242 174.004C77.1117 174.117 76.9591 174.18 76.8 174.18Z" fill="#1B9DB1"/>
<path d="M214.44 182.526H77.3161C77.1569 182.526 77.0043 182.463 76.8918 182.35C76.7793 182.238 76.7161 182.085 76.7161 181.926V90.0299C76.7161 89.8708 76.7793 89.7182 76.8918 89.6057C77.0043 89.4931 77.1569 89.4299 77.3161 89.4299C77.4752 89.4299 77.6278 89.4931 77.7403 89.6057C77.8529 89.7182 77.9161 89.8708 77.9161 90.0299V181.326H214.44C214.599 181.326 214.752 181.389 214.864 181.502C214.977 181.614 215.04 181.767 215.04 181.926C215.04 182.085 214.977 182.238 214.864 182.35C214.752 182.463 214.599 182.526 214.44 182.526Z" fill="#1B9DB1"/>
<path d="M114 92.3459V93.8759L109.2 104.646H106.8L111.42 94.2779H106.584V96.3719H104.46V92.3459H114Z" fill="#1B9DB1"/>
<path d="M115.08 98.496C115.08 94.452 117.294 92.166 120.216 92.166C123.138 92.166 125.364 94.452 125.364 98.496C125.364 102.54 123.15 104.82 120.216 104.82C117.282 104.82 115.08 102.54 115.08 98.496ZM123.06 98.496C123.06 95.526 121.902 94.152 120.216 94.152C118.53 94.152 117.384 95.526 117.384 98.496C117.384 101.466 118.542 102.834 120.216 102.834C121.89 102.834 123.06 101.466 123.06 98.496Z" fill="#1B9DB1"/>
<path d="M126.72 95.598C126.72 93.576 127.92 92.22 129.654 92.22C131.388 92.22 132.606 93.558 132.606 95.598C132.606 97.638 131.406 98.97 129.654 98.97C127.902 98.97 126.72 97.62 126.72 95.598ZM131.166 95.598C131.166 94.224 130.602 93.45 129.654 93.45C128.706 93.45 128.142 94.242 128.142 95.598C128.142 96.954 128.742 97.74 129.654 97.74C130.566 97.74 131.166 96.966 131.166 95.598ZM137.034 92.346H138.756L130.356 104.646H128.634L137.034 92.346ZM134.784 101.4C134.784 99.378 135.984 98.028 137.718 98.028C139.452 98.028 140.67 99.378 140.67 101.4C140.67 103.422 139.47 104.778 137.718 104.778C135.966 104.778 134.784 103.416 134.784 101.4ZM139.23 101.4C139.23 100.05 138.63 99.258 137.718 99.258C136.806 99.258 136.2 100.026 136.2 101.4C136.2 102.774 136.8 103.548 137.712 103.548C138.624 103.548 139.23 102.75 139.23 101.4Z" fill="#1B9DB1"/>
<path d="M136.938 107.946H109.182V109.878H136.938V107.946Z" fill="#1B9DB1"/>
<path d="M136.938 112.596H104.532V114.528H136.938V112.596Z" fill="#1B9DB1"/>
<path d="M136.938 117.126H104.532V119.058H136.938V117.126Z" fill="#1B9DB1"/>
<path d="M129.78 121.656H104.532V123.588H129.78V121.656Z" fill="#1B9DB1"/>
<path d="M238.386 193.758C238.386 193.758 242.754 203.166 243.024 223.398H245.994C245.994 223.398 243.534 192.906 237.882 190.722C234.864 189.6 238.386 193.758 238.386 193.758Z" fill="#1B9DB1"/>
<g opacity="0.1">
<path d="M238.386 193.758C238.386 193.758 242.754 203.166 243.024 223.398H245.994C245.994 223.398 243.534 192.906 237.882 190.722C234.864 189.6 238.386 193.758 238.386 193.758Z" fill="black"/>
</g>
<path d="M236.646 190.74C237.246 188.94 237.552 188.97 238.626 187.788C237.03 187.524 235.092 186.714 232.482 187.752C230.19 188.832 229.332 191.352 229.776 193.812C229.795 193.902 229.794 193.994 229.773 194.083C229.752 194.172 229.712 194.256 229.656 194.328C229.592 194.407 229.511 194.47 229.418 194.511C229.326 194.552 229.224 194.571 229.123 194.566C229.022 194.56 228.923 194.531 228.836 194.481C228.748 194.43 228.673 194.359 228.618 194.274C228.117 193.46 227.829 192.534 227.78 191.58C227.73 190.626 227.922 189.675 228.336 188.814C226.29 189.462 223.932 190.53 222.672 192.27C221.292 194.172 221.754 198.654 223.368 200.526C223.435 200.606 223.472 200.707 223.472 200.811C223.472 200.915 223.435 201.016 223.368 201.096C223.331 201.146 223.283 201.188 223.229 201.219C223.174 201.249 223.114 201.268 223.051 201.274C222.989 201.28 222.926 201.272 222.867 201.252C222.808 201.231 222.754 201.199 222.708 201.156C221.893 200.525 221.227 199.722 220.758 198.804C220.266 197.736 220.044 196.476 220.674 195.486C218.07 195.882 215.874 201.39 216.138 201.33C216.504 203.28 218.262 205.056 219.138 205.842C219.289 205.977 219.388 206.161 219.418 206.361C219.449 206.561 219.409 206.766 219.306 206.94C219.241 207.049 219.154 207.142 219.05 207.215C218.946 207.287 218.827 207.335 218.703 207.358C218.578 207.38 218.45 207.375 218.327 207.343C218.205 207.312 218.09 207.254 217.992 207.174C217.056 206.412 215.64 205.116 215.244 204.012C214.38 204.612 214.41 206.082 214.428 207.138C214.476 210.51 217.014 212.952 219.012 215.424C221.6 216.373 224.401 216.581 227.1 216.024C229.062 215.563 230.769 214.361 231.864 212.67V212.628C230.028 212.226 228 211.704 226.128 211.278C225.954 211.24 225.801 211.139 225.698 210.993C225.596 210.847 225.552 210.668 225.576 210.492C225.604 210.31 225.702 210.146 225.848 210.034C225.995 209.922 226.179 209.871 226.362 209.892C228.828 210.186 230.742 210.744 233.274 211.008C234.642 209.808 236.838 205.332 236.436 205.452C234.27 205.32 230.592 205.572 228.546 204.672C228.405 204.603 228.296 204.482 228.243 204.334C228.19 204.186 228.198 204.023 228.264 203.88C228.323 203.776 228.411 203.692 228.518 203.638C228.625 203.585 228.745 203.565 228.864 203.58C231.632 204.128 234.475 204.189 237.264 203.76C238.914 201.522 240.102 199.794 240.294 198.126L233.76 197.526C233.622 197.518 233.491 197.458 233.394 197.359C233.297 197.26 233.24 197.129 233.235 196.99C233.23 196.852 233.276 196.716 233.366 196.61C233.455 196.504 233.581 196.435 233.718 196.416H233.754C236.418 196.104 239.544 197.058 241.68 195.54C241.68 195.54 244.506 192.798 243.558 191.196C241.332 192.426 236.4 191.55 236.646 190.74Z" fill="#1B9DB1"/>
<path d="M247.71 194.604C245.745 198.087 244.292 201.836 243.396 205.734C240.396 219.24 240.474 223.224 240.474 223.224L237.966 223.308C237.966 223.308 242.85 197.448 246.876 193.812C250.902 190.176 247.71 194.604 247.71 194.604Z" fill="#1B9DB1"/>
<path opacity="0.4" d="M247.71 194.604C245.745 198.087 244.292 201.836 243.396 205.734C240.396 219.24 240.474 223.224 240.474 223.224L237.966 223.308C237.966 223.308 242.85 197.448 246.876 193.812C250.902 190.176 247.71 194.604 247.71 194.604Z" fill="black"/>
<path d="M248.646 191.778C247.74 191.064 247.59 191.178 246.63 190.896C247.41 190.296 248.202 189.348 249.948 189.096C250.676 189.045 251.401 189.232 252.014 189.63C252.627 190.027 253.093 190.612 253.344 191.298C253.366 191.348 253.398 191.393 253.438 191.431C253.479 191.468 253.526 191.496 253.578 191.514C253.635 191.537 253.696 191.546 253.756 191.541C253.817 191.536 253.876 191.517 253.928 191.486C253.98 191.454 254.025 191.411 254.058 191.36C254.091 191.309 254.111 191.251 254.118 191.19C254.122 190.63 253.977 190.079 253.699 189.593C253.421 189.107 253.019 188.704 252.534 188.424C253.848 188.154 255.468 187.998 256.734 188.484C258.09 189.024 259.266 191.358 258.99 192.75C258.978 192.809 258.989 192.871 259.02 192.923C259.051 192.975 259.1 193.014 259.158 193.032C259.23 193.06 259.309 193.058 259.38 193.028C259.451 192.998 259.507 192.941 259.536 192.87C259.779 192.33 259.886 191.739 259.848 191.148C259.837 190.808 259.738 190.476 259.56 190.186C259.382 189.895 259.132 189.656 258.834 189.492C260.37 188.94 263.322 191.01 263.154 191.058C263.58 192.126 263.19 193.506 262.962 194.142C262.922 194.257 262.927 194.383 262.976 194.494C263.025 194.606 263.114 194.694 263.226 194.742C263.294 194.779 263.369 194.801 263.446 194.807C263.523 194.813 263.6 194.804 263.673 194.779C263.746 194.754 263.814 194.715 263.871 194.663C263.928 194.611 263.974 194.548 264.006 194.478C264.36 193.748 264.527 192.942 264.492 192.132C265.152 192.18 265.602 192.906 265.932 193.428C266.976 195.102 266.382 197.028 266.088 198.828C264.947 200.062 263.497 200.967 261.888 201.45C260.675 201.787 259.383 201.689 258.234 201.174C259.098 200.448 260.034 199.602 260.916 198.852C260.956 198.82 260.988 198.78 261.012 198.734C261.036 198.689 261.05 198.639 261.054 198.588C261.058 198.537 261.052 198.486 261.035 198.437C261.018 198.389 260.992 198.344 260.958 198.306C260.881 198.227 260.78 198.177 260.671 198.164C260.562 198.151 260.451 198.175 260.358 198.234C259.116 199.092 258.258 199.92 256.968 200.778C255.834 200.58 253.224 199.02 253.482 198.978C254.616 198.288 256.686 197.352 257.514 196.314C257.542 196.278 257.562 196.236 257.572 196.192C257.582 196.147 257.582 196.101 257.572 196.056C257.563 196.012 257.543 195.97 257.516 195.933C257.488 195.897 257.453 195.867 257.412 195.846C257.346 195.808 257.27 195.79 257.194 195.795C257.118 195.8 257.046 195.829 256.986 195.876C255.635 196.958 254.114 197.809 252.486 198.396C250.878 197.796 249.684 197.262 249.048 196.5L252.39 194.304C252.427 194.282 252.459 194.254 252.484 194.22C252.51 194.186 252.528 194.147 252.539 194.106C252.55 194.064 252.552 194.022 252.546 193.979C252.54 193.937 252.526 193.897 252.504 193.86C252.482 193.823 252.454 193.791 252.42 193.766C252.386 193.74 252.347 193.722 252.306 193.711C252.264 193.701 252.222 193.698 252.179 193.704C252.137 193.71 252.097 193.724 252.06 193.746C250.512 194.346 249.12 195.738 247.482 195.606C247.482 195.606 245.082 195.078 245.082 194.016C246.642 193.962 249.048 192.096 248.646 191.778Z" fill="#1B9DB1"/>
<path opacity="0.2" d="M248.646 191.778C247.74 191.064 247.59 191.178 246.63 190.896C247.41 190.296 248.202 189.348 249.948 189.096C250.676 189.045 251.401 189.232 252.014 189.63C252.627 190.027 253.093 190.612 253.344 191.298C253.366 191.348 253.398 191.393 253.438 191.431C253.479 191.468 253.526 191.496 253.578 191.514C253.635 191.537 253.696 191.546 253.756 191.541C253.817 191.536 253.876 191.517 253.928 191.486C253.98 191.454 254.025 191.411 254.058 191.36C254.091 191.309 254.111 191.251 254.118 191.19C254.122 190.63 253.977 190.079 253.699 189.593C253.421 189.107 253.019 188.704 252.534 188.424C253.848 188.154 255.468 187.998 256.734 188.484C258.09 189.024 259.266 191.358 258.99 192.75C258.978 192.809 258.989 192.871 259.02 192.923C259.051 192.975 259.1 193.014 259.158 193.032C259.23 193.06 259.309 193.058 259.38 193.028C259.451 192.998 259.507 192.941 259.536 192.87C259.779 192.33 259.886 191.739 259.848 191.148C259.837 190.808 259.738 190.476 259.56 190.186C259.382 189.895 259.132 189.656 258.834 189.492C260.37 188.94 263.322 191.01 263.154 191.058C263.58 192.126 263.19 193.506 262.962 194.142C262.922 194.257 262.927 194.383 262.976 194.494C263.025 194.606 263.114 194.694 263.226 194.742C263.294 194.779 263.369 194.801 263.446 194.807C263.523 194.813 263.6 194.804 263.673 194.779C263.746 194.754 263.814 194.715 263.871 194.663C263.928 194.611 263.974 194.548 264.006 194.478C264.36 193.748 264.527 192.942 264.492 192.132C265.152 192.18 265.602 192.906 265.932 193.428C266.976 195.102 266.382 197.028 266.088 198.828C264.947 200.062 263.497 200.967 261.888 201.45C260.675 201.787 259.383 201.689 258.234 201.174C259.098 200.448 260.034 199.602 260.916 198.852C260.956 198.82 260.988 198.78 261.012 198.734C261.036 198.689 261.05 198.639 261.054 198.588C261.058 198.537 261.052 198.486 261.035 198.437C261.018 198.389 260.992 198.344 260.958 198.306C260.881 198.227 260.78 198.177 260.671 198.164C260.562 198.151 260.451 198.175 260.358 198.234C259.116 199.092 258.258 199.92 256.968 200.778C255.834 200.58 253.224 199.02 253.482 198.978C254.616 198.288 256.686 197.352 257.514 196.314C257.542 196.278 257.562 196.236 257.572 196.192C257.582 196.147 257.582 196.101 257.572 196.056C257.563 196.012 257.543 195.97 257.516 195.933C257.488 195.897 257.453 195.867 257.412 195.846C257.346 195.808 257.27 195.79 257.194 195.795C257.118 195.8 257.046 195.829 256.986 195.876C255.635 196.958 254.114 197.809 252.486 198.396C250.878 197.796 249.684 197.262 249.048 196.5L252.39 194.304C252.427 194.282 252.459 194.254 252.484 194.22C252.51 194.186 252.528 194.147 252.539 194.106C252.55 194.064 252.552 194.022 252.546 193.979C252.54 193.937 252.526 193.897 252.504 193.86C252.482 193.823 252.454 193.791 252.42 193.766C252.386 193.74 252.347 193.722 252.306 193.711C252.264 193.701 252.222 193.698 252.179 193.704C252.137 193.71 252.097 193.724 252.06 193.746C250.512 194.346 249.12 195.738 247.482 195.606C247.482 195.606 245.082 195.078 245.082 194.016C246.642 193.962 249.048 192.096 248.646 191.778Z" fill="white"/>
<path d="M245.556 199.152C245.556 199.152 240.66 206.286 239.34 213C238.02 219.714 237.912 222.6 237.912 222.6L234.942 222.63C234.942 222.63 240.198 202.23 244.716 198.198C249.234 194.166 245.556 199.152 245.556 199.152Z" fill="#1B9DB1"/>
<path opacity="0.2" d="M245.556 199.152C245.556 199.152 240.66 206.286 239.34 213C238.02 219.714 237.912 222.6 237.912 222.6L234.942 222.63C234.942 222.63 240.198 202.23 244.716 198.198C249.234 194.166 245.556 199.152 245.556 199.152Z" fill="black"/>
<path d="M245.748 198.522C245.448 196.974 245.196 196.974 244.446 195.888C245.778 195.846 247.446 195.39 249.48 196.524C251.238 197.658 251.67 199.8 251.034 201.78C251.01 201.852 251.002 201.929 251.011 202.004C251.019 202.08 251.043 202.153 251.082 202.218C251.126 202.289 251.185 202.349 251.256 202.392C251.328 202.436 251.408 202.462 251.491 202.468C251.574 202.475 251.658 202.461 251.735 202.429C251.812 202.397 251.88 202.347 251.934 202.284C252.432 201.673 252.768 200.947 252.912 200.172C253.055 199.397 253.002 198.599 252.756 197.85C254.358 198.606 256.176 199.728 257.016 201.288C257.94 202.998 257.076 206.616 255.552 207.972C255.487 208.028 255.444 208.104 255.429 208.189C255.415 208.273 255.431 208.36 255.474 208.434C255.499 208.478 255.533 208.517 255.574 208.547C255.615 208.578 255.661 208.599 255.711 208.611C255.76 208.623 255.812 208.625 255.862 208.616C255.912 208.607 255.959 208.588 256.002 208.56C256.739 208.132 257.372 207.546 257.856 206.844C258.147 206.464 258.338 206.018 258.414 205.545C258.489 205.073 258.446 204.589 258.288 204.138C260.37 204.738 261.582 209.49 261.366 209.412C260.85 210.966 259.224 212.232 258.414 212.778C258.276 212.873 258.175 213.013 258.129 213.174C258.083 213.335 258.095 213.507 258.162 213.66C258.203 213.756 258.265 213.842 258.342 213.912C258.42 213.982 258.512 214.034 258.611 214.066C258.711 214.097 258.816 214.107 258.92 214.093C259.024 214.08 259.123 214.045 259.212 213.99C260.058 213.468 261.36 212.562 261.804 211.698C262.446 212.298 262.26 213.498 262.134 214.344C261.726 217.098 259.386 218.826 257.484 220.632C255.262 221.125 252.947 220.986 250.8 220.23C249.244 219.642 247.978 218.475 247.266 216.972V216.93C248.814 216.798 250.53 216.6 252.108 216.45C252.255 216.434 252.392 216.363 252.49 216.252C252.589 216.142 252.643 215.998 252.642 215.85C252.642 215.691 252.579 215.538 252.466 215.426C252.354 215.313 252.201 215.25 252.042 215.25C249.99 215.22 248.364 215.472 246.264 215.412C245.274 214.266 243.96 210.378 244.272 210.516C246.072 210.648 249.072 211.254 250.818 210.738C250.878 210.719 250.934 210.689 250.983 210.649C251.032 210.609 251.072 210.56 251.101 210.504C251.131 210.448 251.149 210.387 251.155 210.324C251.161 210.262 251.154 210.198 251.136 210.138C251.102 210.042 251.038 209.96 250.954 209.904C250.87 209.847 250.769 209.82 250.668 209.826C248.341 209.973 246.007 209.715 243.768 209.064C242.658 207.054 241.872 205.512 241.896 204.12L247.296 204.318C247.406 204.319 247.512 204.28 247.596 204.209C247.681 204.139 247.737 204.04 247.755 203.932C247.773 203.823 247.752 203.712 247.695 203.618C247.638 203.524 247.55 203.453 247.446 203.418C245.298 202.866 242.646 203.316 241.056 201.834C241.056 201.834 239.034 199.29 239.988 198.078C241.728 199.392 245.886 199.2 245.748 198.522Z" fill="#1B9DB1"/>
<path opacity="0.1" d="M245.748 198.522C245.448 196.974 245.196 196.974 244.446 195.888C245.778 195.846 247.446 195.39 249.48 196.524C251.238 197.658 251.67 199.8 251.034 201.78C251.01 201.852 251.002 201.929 251.011 202.004C251.019 202.08 251.043 202.153 251.082 202.218C251.126 202.289 251.185 202.349 251.256 202.392C251.328 202.436 251.408 202.462 251.491 202.468C251.574 202.475 251.658 202.461 251.735 202.429C251.812 202.397 251.88 202.347 251.934 202.284C252.432 201.673 252.768 200.947 252.912 200.172C253.055 199.397 253.002 198.599 252.756 197.85C254.358 198.606 256.176 199.728 257.016 201.288C257.94 202.998 257.076 206.616 255.552 207.972C255.487 208.028 255.444 208.104 255.429 208.189C255.415 208.273 255.431 208.36 255.474 208.434C255.499 208.478 255.533 208.517 255.574 208.547C255.615 208.578 255.661 208.599 255.711 208.611C255.76 208.623 255.812 208.625 255.862 208.616C255.912 208.607 255.959 208.588 256.002 208.56C256.739 208.132 257.372 207.546 257.856 206.844C258.147 206.464 258.338 206.018 258.414 205.545C258.489 205.073 258.446 204.589 258.288 204.138C260.37 204.738 261.582 209.49 261.366 209.412C260.85 210.966 259.224 212.232 258.414 212.778C258.276 212.873 258.175 213.013 258.129 213.174C258.083 213.335 258.095 213.507 258.162 213.66C258.203 213.756 258.265 213.842 258.342 213.912C258.42 213.982 258.512 214.034 258.611 214.066C258.711 214.097 258.816 214.107 258.92 214.093C259.024 214.08 259.123 214.045 259.212 213.99C260.058 213.468 261.36 212.562 261.804 211.698C262.446 212.298 262.26 213.498 262.134 214.344C261.726 217.098 259.386 218.826 257.484 220.632C255.262 221.125 252.947 220.986 250.8 220.23C249.244 219.642 247.978 218.475 247.266 216.972V216.93C248.814 216.798 250.53 216.6 252.108 216.45C252.255 216.434 252.392 216.363 252.49 216.252C252.589 216.142 252.643 215.998 252.642 215.85C252.642 215.691 252.579 215.538 252.466 215.426C252.354 215.313 252.201 215.25 252.042 215.25C249.99 215.22 248.364 215.472 246.264 215.412C245.274 214.266 243.96 210.378 244.272 210.516C246.072 210.648 249.072 211.254 250.818 210.738C250.878 210.719 250.934 210.689 250.983 210.649C251.032 210.609 251.072 210.56 251.101 210.504C251.131 210.448 251.149 210.387 251.155 210.324C251.161 210.262 251.154 210.198 251.136 210.138C251.102 210.042 251.038 209.96 250.954 209.904C250.87 209.847 250.769 209.82 250.668 209.826C248.341 209.973 246.007 209.715 243.768 209.064C242.658 207.054 241.872 205.512 241.896 204.12L247.296 204.318C247.406 204.319 247.512 204.28 247.596 204.209C247.681 204.139 247.737 204.04 247.755 203.932C247.773 203.823 247.752 203.712 247.695 203.618C247.638 203.524 247.55 203.453 247.446 203.418C245.298 202.866 242.646 203.316 241.056 201.834C241.056 201.834 239.034 199.29 239.988 198.078C241.728 199.392 245.886 199.2 245.748 198.522Z" fill="black"/>
<path d="M235.896 244.8H246.192C247.964 244.799 249.683 244.195 251.066 243.087C252.448 241.979 253.413 240.433 253.8 238.704L257.682 221.346H224.4L228.282 238.704C228.669 240.434 229.634 241.981 231.019 243.089C232.403 244.197 234.123 244.8 235.896 244.8Z" fill="#1B9DB1"/>
<g opacity="0.3">
<path d="M235.896 244.8H246.192C247.964 244.799 249.683 244.195 251.066 243.087C252.448 241.979 253.413 240.433 253.8 238.704L257.682 221.346H224.4L228.282 238.704C228.669 240.434 229.634 241.981 231.019 243.089C232.403 244.197 234.123 244.8 235.896 244.8Z" fill="black"/>
</g>
<path opacity="0.1" d="M236.646 190.74C237.246 188.94 237.552 188.97 238.626 187.788C237.03 187.524 235.092 186.714 232.482 187.752C230.19 188.832 229.332 191.352 229.776 193.812C229.795 193.902 229.794 193.994 229.773 194.083C229.752 194.172 229.712 194.256 229.656 194.328C229.592 194.407 229.511 194.47 229.418 194.511C229.326 194.552 229.224 194.571 229.123 194.566C229.022 194.56 228.923 194.531 228.836 194.481C228.748 194.43 228.673 194.359 228.618 194.274C228.117 193.46 227.829 192.534 227.78 191.58C227.73 190.626 227.922 189.675 228.336 188.814C226.29 189.462 223.932 190.53 222.672 192.27C221.292 194.172 221.754 198.654 223.368 200.526C223.435 200.606 223.472 200.707 223.472 200.811C223.472 200.915 223.435 201.016 223.368 201.096C223.331 201.146 223.283 201.188 223.229 201.219C223.174 201.249 223.114 201.268 223.051 201.274C222.989 201.28 222.926 201.272 222.867 201.252C222.808 201.231 222.754 201.199 222.708 201.156C221.893 200.525 221.227 199.722 220.758 198.804C220.266 197.736 220.044 196.476 220.674 195.486C218.07 195.882 215.874 201.39 216.138 201.33C216.504 203.28 218.262 205.056 219.138 205.842C219.289 205.977 219.388 206.161 219.418 206.361C219.449 206.561 219.409 206.766 219.306 206.94C219.241 207.049 219.154 207.142 219.05 207.215C218.946 207.287 218.827 207.335 218.703 207.358C218.578 207.38 218.45 207.375 218.327 207.343C218.205 207.312 218.09 207.254 217.992 207.174C217.056 206.412 215.64 205.116 215.244 204.012C214.38 204.612 214.41 206.082 214.428 207.138C214.476 210.51 217.014 212.952 219.012 215.424C221.6 216.373 224.401 216.581 227.1 216.024C229.062 215.563 230.769 214.361 231.864 212.67V212.628C230.028 212.226 228 211.704 226.128 211.278C225.954 211.24 225.801 211.139 225.698 210.993C225.596 210.847 225.552 210.668 225.576 210.492C225.604 210.31 225.702 210.146 225.848 210.034C225.995 209.922 226.179 209.871 226.362 209.892C228.828 210.186 230.742 210.744 233.274 211.008C234.642 209.808 236.838 205.332 236.436 205.452C234.27 205.32 230.592 205.572 228.546 204.672C228.405 204.603 228.296 204.482 228.243 204.334C228.19 204.186 228.198 204.023 228.264 203.88C228.323 203.776 228.411 203.692 228.518 203.638C228.625 203.585 228.745 203.565 228.864 203.58C231.632 204.128 234.475 204.189 237.264 203.76C238.914 201.522 240.102 199.794 240.294 198.126L233.76 197.526C233.622 197.518 233.491 197.458 233.394 197.359C233.297 197.26 233.24 197.129 233.235 196.99C233.23 196.852 233.276 196.716 233.366 196.61C233.455 196.504 233.581 196.435 233.718 196.416H233.754C236.418 196.104 239.544 197.058 241.68 195.54C241.68 195.54 244.506 192.798 243.558 191.196C241.332 192.426 236.4 191.55 236.646 190.74Z" fill="white"/>
<path d="M77.4001 123.144C77.4001 123.144 72.5461 123.504 69.9001 129.066C67.2541 134.628 65.4481 145.074 71.7001 145.35C77.9521 145.626 77.3881 144.096 77.3881 144.096V141.312L73.3741 140.112C73.1742 140.052 72.9886 139.951 72.8284 139.817C72.6683 139.683 72.5369 139.518 72.4421 139.332C72.3474 139.146 72.2913 138.943 72.2772 138.735C72.2631 138.526 72.2913 138.317 72.3601 138.12L74.4721 132.12L77.4001 123.144Z" fill="#1B9DB1"/>
<path opacity="0.2" d="M77.4001 123.144C77.4001 123.144 72.5461 123.504 69.9001 129.066C67.2541 134.628 65.4481 145.074 71.7001 145.35C77.9521 145.626 77.3881 144.096 77.3881 144.096V141.312L73.3741 140.112C73.1742 140.052 72.9886 139.951 72.8284 139.817C72.6683 139.683 72.5369 139.518 72.4421 139.332C72.3474 139.146 72.2913 138.943 72.2772 138.735C72.2631 138.526 72.2913 138.317 72.3601 138.12L74.4721 132.12L77.4001 123.144Z" fill="black"/>
<path d="M90.042 108.726C90.246 108.69 90.456 108.906 90.522 109.212C90.588 109.518 90.474 109.812 90.27 109.812C90.066 109.812 89.856 109.638 89.79 109.332C89.724 109.026 89.838 108.762 90.042 108.726Z" fill="#263238"/>
<path d="M90.63 112.8C90.8963 112.809 91.1614 112.76 91.4069 112.656C91.6524 112.553 91.8725 112.397 92.052 112.2C91.2786 111.513 90.6024 110.724 90.042 109.854L90.63 112.8Z" fill="#EC837E"/>
<path d="M88.4459 107.838C88.5957 107.659 88.786 107.519 89.0009 107.428C89.2158 107.337 89.4493 107.299 89.6819 107.316C89.7014 107.322 89.7224 107.322 89.7419 107.316C89.7913 107.316 89.8386 107.296 89.8734 107.262C89.9083 107.227 89.9279 107.179 89.9279 107.13C89.9288 107.105 89.9245 107.081 89.9155 107.058C89.9064 107.035 89.8927 107.014 89.8753 106.997C89.8579 106.979 89.837 106.966 89.8141 106.957C89.7911 106.947 89.7666 106.943 89.7419 106.944C89.4518 106.909 89.1576 106.946 88.8848 107.051C88.6119 107.155 88.3687 107.324 88.1759 107.544C88.1452 107.579 88.1282 107.624 88.1279 107.67C88.1293 107.72 88.1492 107.767 88.1836 107.802C88.2181 107.838 88.2645 107.859 88.3139 107.862C88.3594 107.868 88.4056 107.86 88.4459 107.838Z" fill="#263238"/>
<path d="M87.1681 118.32C86.6041 120.546 86.5681 123.306 89.0101 124.062C89.0101 124.062 92.0461 126.606 86.2021 126.606C80.8981 126.606 80.1121 123.708 80.1121 123.708C82.1161 121.794 81.7741 117.84 81.2161 114.978L87.1681 118.32Z" fill="#FFC2BC"/>
<path d="M77.946 123.216C77.946 123.216 78.906 120.672 80.214 119.916C81.522 119.16 87.018 120.288 87.87 120.666C88.722 121.044 89.502 123.066 89.502 123.066L77.946 123.216Z" fill="#1B9DB1"/>
<path opacity="0.2" d="M77.946 123.216C77.946 123.216 78.906 120.672 80.214 119.916C81.522 119.16 87.018 120.288 87.87 120.666C88.722 121.044 89.502 123.066 89.502 123.066L77.946 123.216Z" fill="black"/>
<path d="M86.3161 241.164C86.2974 241.161 86.2801 241.153 86.2666 241.14C86.253 241.127 86.244 241.11 86.2407 241.091C86.2373 241.072 86.24 241.053 86.2481 241.036C86.2563 241.019 86.2695 241.005 86.2861 240.996C86.3581 240.96 87.7261 240.186 88.3741 240.36C88.4359 240.375 88.4942 240.401 88.5457 240.438C88.5972 240.475 88.6408 240.522 88.6741 240.576C88.7149 240.635 88.7367 240.705 88.7367 240.777C88.7367 240.849 88.7149 240.919 88.6741 240.978C88.5121 241.206 88.0741 241.278 87.5221 241.278C87.1177 241.273 86.7143 241.235 86.3161 241.164ZM88.1161 240.51C87.5767 240.575 87.0551 240.744 86.5801 241.008C87.3061 241.11 88.2961 241.104 88.4761 240.852C88.5181 240.816 88.5361 240.762 88.4761 240.648C88.4572 240.615 88.4313 240.587 88.4002 240.565C88.3691 240.543 88.3335 240.529 88.2961 240.522C88.2367 240.51 88.1755 240.51 88.1161 240.522V240.51Z" fill="#1B9DB1"/>
<path d="M86.28 241.146C86.2567 241.124 86.2418 241.094 86.238 241.062C86.2644 240.507 86.4756 239.977 86.838 239.556C86.9094 239.495 86.9926 239.449 87.0823 239.421C87.1721 239.393 87.2666 239.384 87.36 239.394C87.618 239.424 87.708 239.556 87.708 239.658C87.78 240.114 86.844 240.942 86.37 241.158H86.334C86.3154 241.158 86.297 241.154 86.28 241.146ZM87.312 239.574C87.2506 239.574 87.1897 239.586 87.1329 239.609C87.0762 239.633 87.0249 239.668 86.982 239.712C86.6888 240.049 86.5065 240.468 86.46 240.912C86.946 240.618 87.576 239.952 87.534 239.712C87.534 239.712 87.534 239.61 87.354 239.61H87.3L87.312 239.574Z" fill="#1B9DB1"/>
<path d="M82.44 232.014H86.3461L85.956 241.062H82.05L82.44 232.014Z" fill="#FFC2BC"/>
<path d="M86.8741 240.918C89.5141 242.544 90.3301 242.616 93.3841 243.318C94.0561 243.462 93.6121 245.082 92.0101 245.082C89.3581 245.082 89.0821 244.962 86.8201 244.962C84.8821 244.962 82.6621 245.046 81.1201 245.076C81.0743 245.082 81.0278 245.082 80.9821 245.076C80.8365 245.042 80.7104 244.951 80.6317 244.824C80.5529 244.697 80.5279 244.544 80.5621 244.398L81.3301 240.93C81.3476 240.854 81.3903 240.786 81.4512 240.737C81.5122 240.688 81.5879 240.661 81.6661 240.66H85.9321C86.2638 240.658 86.5898 240.747 86.8741 240.918Z" fill="#263238"/>
<path d="M91.62 123.156C87.7372 122.868 83.8421 122.777 79.95 122.886C78.93 122.958 77.916 123.06 76.908 123.186C76.4047 123.25 75.9194 123.415 75.4814 123.672C75.0434 123.928 74.6617 124.27 74.3591 124.677C74.0565 125.085 73.8394 125.549 73.7206 126.042C73.6019 126.535 73.584 127.048 73.668 127.548C75.984 141.432 74.82 155.052 74.502 157.788L95.376 157.59C97.56 140.406 96.978 131.742 96.138 127.536C95.9184 126.434 95.3685 125.424 94.5615 124.642C93.7546 123.86 92.7286 123.342 91.62 123.156Z" fill="#1B9DB1"/>
<path opacity="0.1" d="M91.62 123.156C87.7372 122.868 83.8421 122.777 79.95 122.886C78.93 122.958 77.916 123.06 76.908 123.186C76.4047 123.25 75.9194 123.415 75.4814 123.672C75.0434 123.928 74.6617 124.27 74.3591 124.677C74.0565 125.085 73.8394 125.549 73.7206 126.042C73.6019 126.535 73.584 127.048 73.668 127.548C75.984 141.432 74.82 155.052 74.502 157.788L95.376 157.59C97.56 140.406 96.978 131.742 96.138 127.536C95.9184 126.434 95.3685 125.424 94.5615 124.642C93.7546 123.86 92.7286 123.342 91.62 123.156Z" fill="black"/>
<path opacity="0.2" d="M82.4341 232.02L82.2361 236.682H86.1481L86.3461 232.02H82.4341Z" fill="black"/>
<path d="M79.254 108.372C79.5199 106.994 80.3219 105.777 81.484 104.99C82.6461 104.202 84.0732 103.908 85.452 104.172C89.472 104.928 91.134 110.448 91.014 114.024C90.894 117.99 86.544 120.678 83.07 118.338C80.76 116.778 80.358 114.54 79.356 110.796C79.1373 110.007 79.1024 109.177 79.254 108.372Z" fill="#FFC2BC"/>
<path d="M74.8079 156.342C74.8079 156.342 70.8059 169.164 67.7099 182.214C63.6719 199.2 53.9399 234 53.9399 234L60.8279 235.518C60.8279 235.518 75.0359 195.054 78.7679 182.856C82.1819 171.72 88.2899 156.354 88.2899 156.354L74.8079 156.342Z" fill="#263238"/>
<path opacity="0.3" d="M83.1239 170.604C76.9799 187.314 75.6779 192.33 75.5879 192.654C76.3319 182.484 79.3919 171.138 83.1239 170.604C83.3999 170.562 82.8719 170.526 83.1239 170.604Z" fill="black"/>
<path d="M81.96 156.342C81.96 156.342 81.5039 170.556 81.2159 183.822C80.9459 195.996 81.2159 235.782 81.2159 235.782H87.8159C87.8159 235.782 92.898 195.192 94.242 182.814C95.544 170.922 95.6819 156.342 95.6819 156.342H81.96Z" fill="#263238"/>
<path d="M80.238 233.442L80.46 235.89H88.506C88.506 235.89 88.908 233.142 88.878 233.142L80.238 233.442Z" fill="#1B9DB1"/>
<path d="M53.748 241.122C53.7414 241.139 53.7299 241.154 53.7149 241.164C53.6999 241.174 53.6822 241.18 53.664 241.18C53.6458 241.18 53.628 241.174 53.613 241.164C53.598 241.154 53.5865 241.139 53.58 241.122C53.544 241.056 52.776 239.682 52.98 239.034C53.0111 238.912 53.0885 238.806 53.196 238.74C53.256 238.699 53.3271 238.677 53.4 238.677C53.4728 238.677 53.5439 238.699 53.604 238.74C53.826 238.908 53.892 239.37 53.892 239.892C53.8787 240.305 53.8306 240.717 53.748 241.122ZM53.112 239.292C53.1669 239.83 53.328 240.353 53.586 240.828C53.694 240.102 53.694 239.118 53.442 238.932C53.442 238.89 53.358 238.872 53.238 238.932C53.2043 238.952 53.1755 238.978 53.1537 239.011C53.1318 239.043 53.1176 239.08 53.112 239.118C53.1 239.176 53.1 239.235 53.112 239.292Z" fill="#1B9DB1"/>
<path d="M53.7419 241.158C53.7324 241.171 53.7196 241.181 53.7048 241.188C53.69 241.194 53.6738 241.196 53.6579 241.194C53.1052 241.166 52.5776 240.955 52.1579 240.594C52.0978 240.522 52.053 240.439 52.0262 240.349C51.9994 240.259 51.9911 240.165 52.0019 240.072C52.0019 239.82 52.1579 239.736 52.2659 239.736C52.7099 239.664 53.5439 240.606 53.7539 241.074V241.11C53.7548 241.127 53.7506 241.144 53.7419 241.158ZM52.1999 240.132C52.2067 240.252 52.2532 240.366 52.3319 240.456C52.6689 240.749 53.0879 240.931 53.5319 240.978C53.2439 240.492 52.5839 239.856 52.3319 239.898C52.3319 239.898 52.2299 239.898 52.2299 240.078V240.132H52.1999Z" fill="#1B9DB1"/>
<path d="M55.452 233.622L59.262 233.91L57.504 241.392L53.688 241.122L55.452 233.622Z" fill="#FFC2BC"/>
<path opacity="0.2" d="M55.5001 233.412L54.7261 236.706L58.5361 236.976L59.3161 233.676L55.5001 233.412Z" fill="black"/>
<path d="M52.8 240.6C51.774 241.8 51.228 242.442 48.246 243.384C47.586 243.588 48.174 245.184 49.776 245.022C52.416 244.788 50.976 244.794 53.208 244.59C55.134 244.422 57.354 244.314 58.89 244.206C58.9418 244.212 58.9942 244.212 59.046 244.206C59.1844 244.153 59.2983 244.051 59.3659 243.919C59.4335 243.787 59.4499 243.635 59.412 243.492L58.338 240.096C58.3149 240.022 58.2671 239.959 58.2026 239.916C58.1381 239.873 58.0609 239.854 57.984 239.862L53.736 240.24C53.3888 240.232 53.0525 240.362 52.8 240.6Z" fill="#263238"/>
<path d="M53.1179 232.71L53.0759 235.2L61.3619 236.088C61.3619 236.088 62.0699 233.4 62.0399 233.4L53.1179 232.71Z" fill="#1B9DB1"/>
<path d="M80.5441 103.368C82.5241 102.606 82.8181 102.426 83.9761 100.644C84.6181 99.6481 84.5281 98.7781 86.4781 98.4601C87.5177 98.283 88.5864 98.4742 89.5001 99.0006C90.4138 99.5271 91.1152 100.356 91.4834 101.344C91.8517 102.332 91.8636 103.418 91.5173 104.414C91.1709 105.41 90.488 106.254 89.5861 106.8C88.5661 107.43 90.0781 105.906 88.9861 106.368C87.8941 106.83 88.1221 106.302 88.0561 107.502C88.0021 108.42 88.5601 109.248 88.9201 110.1C89.2801 110.952 89.3641 112.098 88.6141 112.638C88.8241 111.936 87.1141 113.838 87.1801 114.582C87.3601 116.61 85.5601 118.47 83.5501 118.746C79.1221 119.346 76.2121 114.21 74.9341 110.676C73.2001 105.972 75.8701 105.162 80.5441 103.368Z" fill="#263238"/>
<path d="M87.7801 109.152C88.8901 109.488 89.4541 111.138 89.4961 112.182C89.5321 113.334 88.7581 114.054 87.7621 113.274C87.0105 112.671 86.4773 111.839 86.2441 110.904C85.9861 109.8 86.6701 108.81 87.7801 109.152Z" fill="#FFC2BC"/>
<path opacity="0.1" d="M91.674 123.474C92.8171 123.413 93.9493 123.723 94.9012 124.359C95.853 124.995 96.5732 125.923 96.954 127.002C98.064 129.822 100.272 136.086 101.4 139.314C101.459 139.486 101.568 139.637 101.712 139.748C101.856 139.859 102.029 139.925 102.211 139.938C102.392 139.952 102.573 139.912 102.732 139.823C102.891 139.735 103.02 139.601 103.104 139.44L104.61 136.602C104.61 136.602 106.836 137.022 107.67 138.966C108.504 140.91 103.47 146.214 100.854 146.202C97.914 146.202 94.098 139.002 93.054 135.72C91.7886 131.77 91.3196 127.607 91.674 123.474Z" fill="white"/>
<path d="M104.61 137.52L106.332 134.598C106.332 134.598 105.36 132.798 105.996 131.598C106.632 130.398 107.262 131.37 107.88 130.998C108.498 130.626 109.884 128.088 110.55 129.366C111.216 130.644 112.044 132.852 108.612 135.462L106.758 140.118L104.61 137.52Z" fill="#FFC2BC"/>
<path d="M104.868 136.29C105.621 136.451 106.316 136.816 106.876 137.345C107.436 137.874 107.839 138.547 108.042 139.29V139.35C108.09 139.62 108.426 141.618 108.042 141.654C107.658 141.69 107.106 139.776 103.95 138.114C103.905 138.09 103.865 138.057 103.832 138.018C103.799 137.978 103.775 137.932 103.761 137.883C103.746 137.834 103.742 137.782 103.747 137.731C103.753 137.68 103.769 137.631 103.794 137.586L104.472 136.47C104.51 136.402 104.569 136.347 104.64 136.315C104.712 136.282 104.792 136.274 104.868 136.29Z" fill="#1B9DB1"/>
<path d="M104.868 136.29C105.621 136.451 106.316 136.816 106.876 137.345C107.436 137.874 107.839 138.547 108.042 139.29V139.35C108.09 139.62 108.426 141.618 108.042 141.654C107.658 141.69 107.106 139.776 103.95 138.114C103.905 138.09 103.865 138.057 103.832 138.018C103.799 137.978 103.775 137.932 103.761 137.883C103.746 137.834 103.742 137.782 103.747 137.731C103.753 137.68 103.769 137.631 103.794 137.586L104.472 136.47C104.51 136.402 104.569 136.347 104.64 136.315C104.712 136.282 104.792 136.274 104.868 136.29Z" fill="#1B9DB1"/>
<path d="M91.674 123.474C92.8171 123.413 93.9493 123.723 94.9012 124.359C95.853 124.995 96.5732 125.923 96.954 127.002C98.064 129.822 100.272 136.086 101.4 139.314C101.459 139.486 101.568 139.637 101.712 139.748C101.856 139.859 102.029 139.925 102.211 139.938C102.392 139.952 102.573 139.912 102.732 139.823C102.891 139.735 103.02 139.601 103.104 139.44L104.61 136.602C104.61 136.602 106.836 137.022 107.67 138.966C108.504 140.91 103.47 146.214 100.854 146.202C97.914 146.202 94.098 139.002 93.054 135.72C91.7886 131.77 91.3196 127.607 91.674 123.474Z" fill="#1B9DB1"/>
<path opacity="0.1" d="M91.674 123.474C92.8171 123.413 93.9493 123.723 94.9012 124.359C95.853 124.995 96.5732 125.923 96.954 127.002C98.064 129.822 100.272 136.086 101.4 139.314C101.459 139.486 101.568 139.637 101.712 139.748C101.856 139.859 102.029 139.925 102.211 139.938C102.392 139.952 102.573 139.912 102.732 139.823C102.891 139.735 103.02 139.601 103.104 139.44L104.61 136.602C104.61 136.602 106.836 137.022 107.67 138.966C108.504 140.91 103.47 146.214 100.854 146.202C97.914 146.202 94.098 139.002 93.054 135.72C91.7886 131.77 91.3196 127.607 91.674 123.474Z" fill="white"/>
</svg>
